<svg height="512pt" viewBox="0 -77 512.00076 512" width="512pt" xmlns="http://www.w3.org/2000/svg"><path d="m137.914062 293.707031-30.75-23.972656-38.988281 1.277344c-5.59375.183593-10.601562-3.460938-12.148437-8.84375l-10.789063-37.496094-32.339843-21.800781c-4.652344-3.136719-6.574219-9.035156-4.660157-14.3125l13.3125-36.660156-13.308593-36.660157c-1.917969-5.273437.003906-11.175781 4.660156-14.3125l32.335937-21.796875 10.789063-37.5c1.546875-5.382812 6.554687-9.023437 12.152344-8.839844l38.984374 1.273438 30.753907-23.972656c4.417969-3.441406 10.613281-3.441406 15.035156 0l30.753906 23.972656 38.984375-1.273438c5.597656-.183593 10.601563 3.457032 12.152344 8.839844l10.785156 37.5 32.339844 21.796875c4.652344 3.136719 6.574219 9.035157 4.660156 14.3125l-13.3125 36.660157 13.3125 36.660156c1.914063 5.273437-.007812 11.175781-4.660156 14.3125l-32.335938 21.796875-10.789062 37.5c-1.546875 5.382812-6.554688 9.023437-12.152344 8.839843l-38.984375-1.273437-30.753906 23.972656c-4.421875 3.445313-10.617187 3.445313-15.039063 0zm0 0" fill="#ffc477"/><path d="m152.953125 293.707031 30.75-23.972656 38.988281 1.277344c5.59375.183593 10.601563-3.460938 12.148438-8.84375l10.789062-37.496094 32.339844-21.796875c4.652344-3.136719 6.574219-9.039062 4.660156-14.316406l-13.3125-36.660156 13.3125-36.660157c1.914063-5.273437-.007812-11.175781-4.660156-14.3125l-32.339844-21.796875-5.3125-18.464844c-28.757812 4.875-64.140625 16.769532-91.191406 44.804688-18.582031 19.253906-39.636719 36.015625-62.808594 49.394531-18.566406 10.71875-41.144531 28.089844-61.847656 55.808594l20.769531 13.996094 10.789063 37.5c1.546875 5.382812 6.554687 9.023437 12.148437 8.839843l38.988281-1.273437 30.75 23.972656c4.421876 3.445313 10.617188 3.445313 15.039063 0zm0 0" fill="#ffb864"/><path d="m233.636719 151.898438c0 48.714843-39.492188 88.203124-88.203125 88.203124-48.710938 0-88.203125-39.488281-88.203125-88.203124 0-48.710938 39.492187-88.203126 88.203125-88.203126 48.710937 0 88.203125 39.492188 88.203125 88.203126zm0 0" fill="#f9e9aa"/><path d="m59.847656 173.300781c9.5625 38.371094 44.253906 66.800781 85.585938 66.800781 48.710937 0 88.203125-39.492187 88.203125-88.203124 0-32.257813-17.320313-60.472657-43.164063-75.851563-14.578125 6.960937-28.851562 16.46875-41.347656 29.417969-18.578125 19.257812-39.636719 36.015625-62.808594 49.394531-8.207031 4.742187-17.203125 10.785156-26.46875 18.441406zm0 0" fill="#eada98"/><path d="m485.414062 216.867188c-15.28125-18.011719-36.152343-27.574219-57.378906-28.859376-15.84375-.957031-30.074218-9.816406-37.554687-23.816406-21.351563-39.964844-63.472657-67.160156-111.949219-67.160156-48.453125 0-90.558594 27.167969-111.917969 67.105469-7.515625 14.042969-21.789062 22.914062-37.683593 23.894531-19.980469 1.230469-39.546876 9.785156-54.328126 25.535156-30.777343 32.796875-29.144531 84.335938 3.652344 115.117188 15.722656 14.753906 34.621094 22.039062 54.605469 22.035156h290.726563c21.636718-.003906 42.714843-8.558594 58.71875-25.527344 28.28125-29.976562 29.773437-76.898437 3.109374-108.324218zm0 0" fill="#d8d7da"/><path d="m278.523438 288.296875c-15.519532 0-28.101563-12.582031-28.101563-28.097656v-20.429688c0-4.238281 3.433594-7.671875 7.671875-7.671875h40.859375c4.238281 0 7.671875 3.433594 7.671875 7.671875v20.429688c-.003906 15.515625-12.582031 28.097656-28.101562 28.097656zm0 0" fill="#57565c"/><path d="m214.5 260.195312c0-13.179687-13.417969-23.867187-29.972656-23.867187-16.550782 0-29.972656 10.6875-29.972656 23.867187 0 13.183594 13.421874 23.871094 29.972656 23.871094 16.554687 0 29.972656-10.6875 29.972656-23.871094zm0 0" fill="#ffa6bb"/><path d="m402.492188 260.195312c0-13.179687-13.421876-23.867187-29.972657-23.867187-16.554687 0-29.972656 10.6875-29.972656 23.867187 0 13.183594 13.417969 23.871094 29.972656 23.871094 16.550781 0 29.972657-10.6875 29.972657-23.871094zm0 0" fill="#ffa6bb"/><path d="m351.679688 227.144531v12.449219c0 4.144531 3.355468 7.5 7.5 7.5 4.140624 0 7.5-3.355469 7.5-7.5v-12.449219c0-4.140625-3.359376-7.5-7.5-7.5-4.144532 0-7.5 3.359375-7.5 7.5zm0 0"/><path d="m190.367188 227.144531v12.449219c0 4.144531 3.355468 7.5 7.5 7.5 4.144531 0 7.5-3.355469 7.5-7.5v-12.449219c0-4.140625-3.355469-7.5-7.5-7.5-4.140626 0-7.5 3.359375-7.5 7.5zm0 0"/><path d="m491.132812 212.015625c-2.675781-3.15625-7.410156-3.546875-10.570312-.867187-3.15625 2.679687-3.546875 7.414062-.867188 10.570312 11.679688 13.765625 17.8125 31.394531 17.273438 49.632812-.542969 18.226563-7.6875 35.519532-20.117188 48.695313-14.09375 14.941406-33.011718 23.167969-53.265624 23.175781h-290.726563c-.003906 0-.007813 0-.015625 0-18.40625 0-35.511719-6.917968-49.457031-20.007812-29.726563-27.902344-31.214844-74.785156-3.3125-104.515625 12.9375-13.785157 30.449219-22.019531 49.316406-23.183594 18.738281-1.152344 35.125-11.5625 43.832031-27.84375 20.835938-38.945313 61.1875-63.140625 105.308594-63.140625 44.148438 0 84.511719 24.214844 105.335938 63.195312 8.6875 16.257813 25.027343 26.640626 43.714843 27.769532 10.261719.621094 20.078125 3.296875 29.175781 7.957031 3.6875 1.890625 8.203126.429687 10.09375-3.257813 1.890626-3.6875.429688-8.207031-3.253906-10.09375-10.953125-5.609374-22.765625-8.832031-35.109375-9.578124-13.445312-.8125-25.179687-8.238282-31.390625-19.867188-23.441406-43.871094-64.636718-71.613281-122.511718-71.058594l-22.503907-15.164062-10.03125-34.878906c-2.503906-8.695313-10.554687-14.546876-19.605469-14.261719l-36.269531 1.183593-28.609375-22.300781c-7.140625-5.566406-17.117187-5.566406-24.261718 0l-28.609376 22.300781-36.269531-1.183593c-9.082031-.277344-17.105469 5.566406-19.605469 14.261719l-10.035156 34.878906-30.078125 20.273437c-7.519531 5.070313-10.613281 14.5625-7.515625 23.089844l12.378906 34.101563-12.378906 34.101562c-3.097656 8.527344-.003906 18.019531 7.519532 23.09375l30.074218 20.269531 7.421875 25.804688c-4.492187 28.175781 4.589844 58.03125 26.914063 78.984375 16.777344 15.746094 37.429687 24.070312 59.722656 24.070312h.019531 290.722657c24.429687-.007812 47.222656-9.90625 64.175781-27.878906 14.957031-15.855469 23.550781-36.644531 24.199219-58.546875.648437-21.953125-6.746094-43.183594-20.828126-59.78125zm-438.6875 10.578125c-.488281-1.691406-1.554687-3.160156-3.015624-4.144531l-32.335938-21.796875c-1.804688-1.214844-2.546875-3.488282-1.804688-5.535156l13.3125-36.660157c.601563-1.652343.601563-3.464843 0-5.117187l-13.3125-36.660156c-.742187-2.042969 0-4.320313 1.804688-5.535157l32.335938-21.796875c1.460937-.984375 2.527343-2.453125 3.015624-4.144531l10.789063-37.5c.597656-2.082031 2.5-3.5 4.699219-3.417969l38.984375 1.273438c1.753906.066406 3.472656-.5 4.855469-1.582032l30.753906-23.972656c1.710937-1.335937 4.101562-1.332031 5.8125 0l30.753906 23.972656c1.382812 1.082032 3.082031 1.652344 4.855469 1.582032l38.984375-1.273438c2.199218-.066406 4.101562 1.335938 4.699218 3.417969l10.785157 37.5c.488281 1.691406 1.554687 3.160156 3.019531 4.144531l10.222656 6.890625c-38.765625 7.882813-72.527344 32.589844-91.664062 68.359375-6.234375 11.65625-18.023438 19.113282-31.53125 19.949219-17.875 1.101563-34.726563 7.5-48.6875 18.257813-9.730469-13.621094-15.046875-30.058594-15.046875-46.90625 0-44.5 36.203125-80.703126 80.703125-80.703126 18.863281 0 37.21875 6.648438 51.679687 18.714844 3.179688 2.652344 7.910157 2.230469 10.5625-.953125 2.652344-3.179687 2.226563-7.910156-.953125-10.5625-17.152344-14.3125-38.917968-22.199219-61.289062-22.199219-52.769532 0-95.703125 42.933594-95.703125 95.703126 0 20.585937 6.691406 40.65625 18.910156 57.089843-5.816406 6.300781-10.546875 13.226563-14.199219 20.546875zm0 0"/><path d="m258.09375 224.597656c-8.367188 0-15.171875 6.804688-15.171875 15.171875v20.429688c0 19.628906 15.972656 35.597656 35.601563 35.597656 19.628906 0 35.597656-15.96875 35.601562-35.597656v-20.429688c0-8.367187-6.808594-15.171875-15.171875-15.171875zm41.027344 15.167969v20.429687c0 11.359376-9.238282 20.601563-20.597656 20.601563-11.359376 0-20.601563-9.242187-20.601563-20.601563 0 0 .078125-20.597656.171875-20.597656 0 0 41.027344.078125 41.027344.167969zm0 0"/></svg>