<svg id="filled_outline" height="512" viewBox="0 0 512 512" width="512" xmlns="http://www.w3.org/2000/svg" data-name="filled outline"><path d="m56 345.081h56v150.919h-56z" fill="#b0a9a5"/><path d="m290.21115 148.65823-25.01858 50.03715a8 8 0 0 1 -3.57771 3.57771l-43.288 21.644a8 8 0 0 1 -4.8929.73573l-65.45866-10.90976 4.02449-64.0912 61.20454 26.23052a8 8 0 0 0 5.68118.2363l17.97083-5.99028a8 8 0 0 0 4.6256-4.01175l12.30691-24.61384a8 8 0 0 1 7.15542-4.42229h22.11146a8 8 0 0 1 7.15542 11.57771z" fill="#3b9298"/><path d="m104 129.08052 47.99979 20.57134.00021 75.42866-15.58947 46.7684a8 8 0 0 0 -.41053 2.52982v30.70178h-80l-16-88-16-24v-27.71852a8 8 0 0 1 3.5624-6.6564l44.4376-29.62508z" fill="#3b9298"/><path d="m64 89.08052h48a0 0 0 0 1 0 0v24a24 24 0 0 1 -24 24 24 24 0 0 1 -24-24v-24a0 0 0 0 1 0 0z" fill="#f5c99d"/><path d="m72 57.08052h32a8 8 0 0 1 8 8v24a0 0 0 0 1 0 0h-48a0 0 0 0 1 0 0v-24a8 8 0 0 1 8-8z" fill="#eebf3e"/><path d="m72 177.08052 21.05541 14.03694a8 8 0 0 0 6.37788 1.10473l24.78124-6.1953a8 8 0 0 0 5.37021-4.512l28.30375-63.68344a8 8 0 0 1 7.31049-4.75089h9.47613a8 8 0 0 1 7.907 9.21646l-13.81374 89.78934a8 8 0 0 1 -5.60819 6.44615l-72.12133 21.6364a8 8 0 0 1 -5.8765-.50719l-56.74-28.37a8 8 0 0 1 -4.42235-7.15547v-27.05575a16 16 0 0 1 16-16h16a16 16 0 0 1 16 16z" fill="#4fbfcb"/><path d="m112 81.081h104v32h-104z" fill="#9b413a"/><path d="m320 137.08052h-54.67582a16.00059 16.00059 0 0 1 -2.63039-.2177l-33.32417-5.554a16 16 0 0 1 -13.36962-15.78233v-36.89194a16 16 0 0 1 13.36962-15.7823l33.32417-5.554a15.9995 15.9995 0 0 1 2.63039-.2177h54.67582z" fill="#eebf3e"/><path d="m480 177.08052h-101.75914a15.9999 15.9999 0 0 1 -4.39554-.61562l-42.24086-12.06882a16 16 0 0 1 -11.60446-15.38438v-95.86236a16 16 0 0 1 11.60446-15.38434l42.24086-12.06882a15.9999 15.9999 0 0 1 4.39554-.61562h101.75914a8 8 0 0 1 8 8v136a8 8 0 0 1 -8 7.99996z" fill="#cc4c4d"/><path d="m168 496v-53.62126a8 8 0 0 0 -.41053-2.52982l-31.17894-93.5368a8 8 0 0 1 -.41053-2.52982v-38.70178h-80v47.08387a32 32 0 0 0 4.61064 16.5476l50.2367 83.15111a8 8 0 0 1 1.15266 4.1369v40z" fill="#efe8e0"/><g fill="#4fbfcb"><rect height="72" rx="8" width="48" x="296" y="273.081"/><rect height="72" rx="8" width="48" x="216" y="297.081"/><rect height="72" rx="8" width="48" x="376" y="257.081"/></g><path d="m174.67529 113.08052h-9.47607a7.99947 7.99947 0 0 0 -7.31055 4.751l-19.56592 44.02344 36.31153 12.10352 7.94775-51.66162a7.99976 7.99976 0 0 0 -7.90674-9.21634z" fill="#f5c99d"/><path d="m276 177.08052 14.21094-28.42236a7.99976 7.99976 0 0 0 -7.15528-11.57764h-22.11132a7.99924 7.99924 0 0 0 -7.15528 4.42236l-7.78906 15.57764z" fill="#f5c99d"/><path d="m488 17.08052h-109.75781a23.89682 23.89682 0 0 0 -6.59375.92578l-42.25 12.06641a24.12178 24.12178 0 0 0 -17.03565 19.00781h-47.04248a23.77142 23.77142 0 0 0 -3.9375.32812l-33.32812 5.55469a23.85233 23.85233 0 0 0 -19.33252 18.11719h-88.72217v-8a16.01833 16.01833 0 0 0 -16-16h-32a16.01833 16.01833 0 0 0 -16 16v48a31.59729 31.59729 0 0 0 3.68652 14.59424l-32.999 21.99951a23.94246 23.94246 0 0 0 -10.68752 19.96873v34.49219a15.91514 15.91514 0 0 0 8.84375 14.3125l8.00537 4.00244 15.15088 83.36574v190.18413h16v-106.21l40 66.2085v40.0015h16v-40.00151a15.90025 15.90025 0 0 0 -2.3125-8.27344l-50.23438-83.14844a24.0322 24.0322 0 0 1 -3.45312-12.41406v-39.082h64v30.70312a15.866 15.866 0 0 0 .82812 5.05469l31.17188 93.53903v53.62261h16v-53.62261a15.86588 15.86588 0 0 0 -.82812-5.05468l-31.17188-93.53907v-69.40625l15.45605-46.38039 5.99707-1.79931a15.44408 15.44408 0 0 0 2.271-1.05372l44.40088 7.40137a15.85534 15.85534 0 0 0 9.78125-1.47265l43.28906-21.64454a16.11326 16.11326 0 0 0 7.15625-7.15625l28.59375-57.1914h11.05469v3.92969a24.10558 24.10558 0 0 0 17.40625 23.07812l42.23437 12.06641a23.99385 23.99385 0 0 0 6.60157.92578h109.75781a7.99789 7.99789 0 0 0 8-8v-152a7.99789 7.99789 0 0 0 -8-7.99998zm-253.67188 145.457-18.07812 6.02348-30.79639-12.31641 5.03858-32.73828a15.83729 15.83729 0 0 0 .10791-2.42578h18.12207a23.85233 23.85233 0 0 0 19.33252 18.11719l16.562 2.76025zm-115.46435-41.457h28.82523l-6.36181 14.314-23.99319-9.59769a31.83575 31.83575 0 0 0 1.52977-4.71631zm46.33154 0h9.48389l-6.50928 42.29053-18.95752-6.31983zm42.80469-16h-88v-16h88zm-136-40h32v16h-32zm32 32v16a16 16 0 0 1 -32 0v-16zm24.82812 172.23048a15.991 15.991 0 0 0 -.82812 5.06639v22.70313h-65.32031l-11.94922-65.68945 30.85547 15.42773a15.97171 15.97171 0 0 0 11.75 1.01562l47.39062-14.21826zm32.03126-58.44141-72.11719 21.63671-56.74219-28.37109v-34.49221a7.97783 7.97783 0 0 1 3.5625-6.65625l34.83838-23.22559a31.61325 31.61325 0 0 0 36.4248-.9331l27.99805 11.19922-12.55029 28.23681-24.78125 6.19531-21.05469-14.03513-8.875 13.3125 21.04688 14.02734a15.95042 15.95042 0 0 0 12.75781 2.21875l24.78125-6.19531a15.9027 15.9027 0 0 0 10.75-9.02344l5.78613-13.02148 23.01611 7.67285zm97.17968-15.75391-43.28906 21.64843-37.645-6.27539 5.8501-38.00976 27.35742 10.9414a16.06068 16.06068 0 0 0 11 .32422l18.08594-6.03125a15.943 15.943 0 0 0 9.24218-8.01953l.46436-.92871 16.58154 11.05469zm14.8584-29.71826-16.58252-11.05468 4.81592-9.63233.252.042a23.77143 23.77143 0 0 0 3.9375.32813h17.73487zm-7.57715-36.31689a8.26406 8.26406 0 0 1 -1.3125-.10938l-33.32812-5.55468a7.97562 7.97562 0 0 1 -6.67969-7.89064v-36.89062a7.9756 7.9756 0 0 1 6.67969-7.89063l33.32812-5.55469a8.26522 8.26522 0 0 1 1.3125-.10937h46.67969v64zm214.67969 40h-101.75781a7.95853 7.95853 0 0 1 -2.20313-.3086l-42.23437-12.0664a8.03207 8.03207 0 0 1 -5.80469-7.69532v-95.85938a8.03437 8.03437 0 0 1 5.79688-7.69531l42.25-12.06641a7.86329 7.86329 0 0 1 2.19531-.30859h101.75781z"/><path d="m472 209.08052h-16v222.91948a8.00791 8.00791 0 0 1 -8 8h-248v16h248a24.02624 24.02624 0 0 0 24-24v-30.91948h24v-16h-24v-32h24v-16h-24v-32h24v-16h-24v-32h24v-16h-24z"/><path d="m224 472h32v16h-32z"/><path d="m304 472h32v16h-32z"/><path d="m384 472h32v16h-32z"/><path d="m232 257.08052v32h-8a16.01833 16.01833 0 0 0 -16 16v56a16.01833 16.01833 0 0 0 16 16h8v32h16v-32h8a16.01833 16.01833 0 0 0 16-16v-56a16.01833 16.01833 0 0 0 -16-16h-8v-32zm24.00781 104h-32.00781v-56h32z"/><path d="m312 233.08052v32h-8a16.01833 16.01833 0 0 0 -16 16v56a16.01833 16.01833 0 0 0 16 16h8v32h16v-32h8a16.01833 16.01833 0 0 0 16-16v-56a16.01833 16.01833 0 0 0 -16-16h-8v-32zm24.00781 104h-32.00781v-56h32z"/><path d="m392 217.08052v32h-8a16.01833 16.01833 0 0 0 -16 16v56a16.01833 16.01833 0 0 0 16 16h8v32h16v-32h8a16.01833 16.01833 0 0 0 16-16v-56a16.01833 16.01833 0 0 0 -16-16h-8v-32zm24.00781 104h-32.00781v-56h32z"/></svg>