<svg id="Capa_1" enable-background="new 0 0 512 512" height="512" viewBox="0 0 512 512" width="512" xmlns="http://www.w3.org/2000/svg"><path d="m409.194 347.739c52.636 0 95.306-42.67 95.306-95.305 0-52.636-42.67-95.306-95.306-95.306-5.356 0-10.607.449-15.722 1.298-2.373-64.032-55.021-115.215-119.632-115.215-48.368 0-90.033 28.685-108.923 69.968-5.553-1.417-11.37-2.173-17.364-2.173-36.162 0-65.915 27.412-69.63 62.589-40.175 8.124-70.423 43.627-70.423 86.198 0 48.571 39.375 87.946 87.946 87.946z" fill="#dbdbdb"/><path d="m106.007 229.236c0-44.376 14.734-85.308 39.568-118.184-35.262.98-64.006 28.01-67.652 62.542-40.175 8.124-70.423 43.628-70.423 86.199 0 48.571 39.375 87.946 87.946 87.946h50.374c-24.98-32.93-39.813-73.982-39.813-118.503z" fill="#bab7bf"/><path d="m408.059 294.386-56.901-65.404c-5.906-6.788-16.449-6.788-22.355 0l-56.901 65.404c-5.041 5.794-.926 14.83 6.755 14.83h21.536v142.018c0 9.695 7.859 17.555 17.555 17.555h44.468c9.695 0 17.555-7.859 17.555-17.555v-142.018h21.536c7.677 0 11.793-9.035 6.752-14.83z" fill="#00d7bd"/><path d="m323.191 451.234v-119.018c0-12.703-10.297-23-23-23v142.018c0 9.695 7.859 17.555 17.555 17.555h23c-9.696 0-17.555-7.859-17.555-17.555z" fill="#00ae8e"/><path d="m171.637 165.272v14.77c0 4.142 3.358 7.5 7.5 7.5s7.5-3.358 7.5-7.5v-14.77c0-4.142-3.358-7.5-7.5-7.5s-7.5 3.358-7.5 7.5z"/><path d="m340.362 180.041v-14.77c0-4.142-3.358-7.5-7.5-7.5s-7.5 3.358-7.5 7.5v14.77c0 4.142 3.358 7.5 7.5 7.5s7.5-3.358 7.5-7.5z"/><path d="m256 196.333c9.934 0 19.38-4.302 25.918-11.804 2.721-3.123 2.396-7.86-.727-10.582-3.123-2.721-7.86-2.396-10.582.727-3.688 4.232-9.013 6.659-14.61 6.659s-10.922-2.427-14.61-6.659c-2.721-3.123-7.459-3.448-10.582-.728-3.123 2.722-3.448 7.459-.727 10.582 6.538 7.503 15.985 11.805 25.92 11.805z"/><path d="m95.445 355.239h197.245v95.996c0 13.815 11.239 25.055 25.055 25.055h44.468c13.815 0 25.054-11.239 25.054-25.055v-30.445c0-4.142-3.358-7.5-7.5-7.5s-7.5 3.358-7.5 7.5v30.445c0 5.544-4.51 10.055-10.054 10.055h-44.468c-5.544 0-10.055-4.511-10.055-10.055 0-14.181 0-121.689 0-142.018 0-3.597-2.544-6.641-5.989-7.348-1.336-.274-.288-.1-23.047-.152-1.276 0-1.802-1.387-1.25-2.209.068-.103 57.134-65.731 57.609-66.175 2.899-2.7 7.675-2.656 10.485.574l56.901 65.404c.831.952.168 2.407-1.097 2.407h-21.536c-4.14 0-7.5 3.356-7.5 7.5v81.573c0 4.142 3.358 7.5 7.5 7.5s7.5-3.358 7.5-7.5v-35.55h21.926c56.689-.002 102.808-46.121 102.808-102.808 0-60.065-51.534-107.549-111.593-102.43-3.011-29.875-16.396-57.531-38.201-78.591-23.836-23.022-55.219-35.701-88.366-35.701-19.212 0-37.693 4.19-54.929 12.455-3.735 1.791-5.311 6.271-3.52 10.005 1.791 3.735 6.27 5.311 10.005 3.52 15.196-7.286 31.495-10.98 48.444-10.98 29.239 0 56.92 11.184 77.945 31.49 20.972 20.256 33.115 47.425 34.193 76.502.167 4.514 4.265 7.861 8.723 7.121 53.769-8.93 102.299 32.659 102.299 86.609 0 48.416-39.39 87.805-87.806 87.805h-21.926v-23.522h14.036c14.118 0 21.675-16.61 12.413-27.252-6.362-7.313-48.397-55.628-56.901-65.403-8.895-10.225-24.785-10.216-33.672 0l-56.901 65.404c-9.266 10.65-1.698 27.252 12.413 27.252h14.036v23.522h-197.247c-44.357 0-80.445-36.088-80.445-80.446 0-38.141 27.088-71.3 64.41-78.846 3.21-.649 5.628-3.306 5.972-6.563 3.364-31.855 30.091-55.877 62.171-55.877 5.246 0 10.464.653 15.509 1.94 3.513.896 7.166-.849 8.675-4.146 6.791-14.842 17.007-28.312 29.544-38.953 3.158-2.68 3.545-7.413.864-10.571-2.68-3.157-7.413-3.545-10.571-.864-12.658 10.744-23.23 24.039-30.831 38.717-4.345-.746-8.761-1.123-13.191-1.123-37.957 0-69.873 27.133-76.337 63.948-41.573 10.88-71.215 48.885-71.215 92.338 0 52.629 42.817 95.446 95.445 95.446z"/></svg>